<svg xmlns="http://www.w3.org/2000/svg" viewBox="0 0 1200 630" width="1200" height="630">
  <defs>
    <linearGradient id="bg" x1="0" y1="0" x2="1200" y2="630" gradientUnits="userSpaceOnUse">
      <stop offset="0" stop-color="#0a0a12"/>
      <stop offset="1" stop-color="#000000"/>
    </linearGradient>
    <linearGradient id="brand" x1="0" y1="0" x2="1200" y2="0" gradientUnits="userSpaceOnUse">
      <stop offset="0" stop-color="#6366F1"/>
      <stop offset="0.5" stop-color="#8B5CF6"/>
      <stop offset="1" stop-color="#06B6D4"/>
    </linearGradient>
    <radialGradient id="halo" cx="900" cy="320" r="380" gradientUnits="userSpaceOnUse">
      <stop offset="0" stop-color="#8B5CF6" stop-opacity="0.32"/>
      <stop offset="0.6" stop-color="#6366F1" stop-opacity="0.08"/>
      <stop offset="1" stop-color="#000" stop-opacity="0"/>
    </radialGradient>
    <pattern id="grid" x="0" y="0" width="48" height="48" patternUnits="userSpaceOnUse">
      <path d="M 48 0 L 0 0 0 48" fill="none" stroke="#f5f5f0" stroke-opacity="0.04" stroke-width="1"/>
    </pattern>
  </defs>
  <rect width="1200" height="630" fill="url(#bg)"/>
  <rect width="1200" height="630" fill="url(#grid)"/>
  <rect width="1200" height="630" fill="url(#halo)"/>
  <rect x="0" y="0" width="1200" height="2" fill="url(#brand)" opacity="0.85"/>
  <g stroke="#06B6D4" stroke-width="1.5" stroke-opacity="0.5" fill="none">
    <path d="M 60 60 L 60 84 M 60 60 L 84 60"/>
    <path d="M 1140 60 L 1140 84 M 1140 60 L 1116 60"/>
    <path d="M 60 570 L 60 546 M 60 570 L 84 570"/>
    <path d="M 1140 570 L 1140 546 M 1140 570 L 1116 570"/>
  </g>
  <g transform="translate(80 110)">
    <circle cx="0" cy="-2" r="3" fill="#06B6D4"/>
    <text x="14" y="2" font-family="'Fira Code', ui-monospace, monospace" font-size="14" fill="#a09e96" letter-spacing="3px">HIL INBOX · TARS</text>
  </g>
  <g transform="translate(80 230)">
    <text font-family="'Share Tech Mono', monospace" font-size="92" font-weight="500" fill="#f5f5f0" letter-spacing="-2px">
      <tspan x="0" y="0">Approve.</tspan>
      <tspan x="0" y="106" fill="url(#brand)">In bulk.</tspan>
    </text>
  </g>
  <g transform="translate(80 470)">
    <text font-family="'Fira Code', monospace" font-size="22" fill="#a09e96" letter-spacing="0.2px">
      <tspan x="0" y="0">Wallet sigs · outreach sends · code edits · live promotions.</tspan>
      <tspan x="0" y="34">Every staged confirmation, one resolve-all surface.</tspan>
    </text>
  </g>
  <!-- Inbox icon: stacked rows with checks -->
  <g transform="translate(820 180)">
    <rect x="0" y="0" width="300" height="280" rx="8" fill="#0b0b10" stroke="url(#brand)" stroke-width="2"/>
    <g>
      <rect x="20" y="20" width="260" height="48" rx="4" fill="#A78BFA" fill-opacity="0.1" stroke="#A78BFA" stroke-opacity="0.4"/>
      <circle cx="40" cy="44" r="8" fill="none" stroke="#A78BFA" stroke-width="1.5"/>
      <text x="56" y="48" font-family="'Fira Code', monospace" font-size="11" fill="#A78BFA" letter-spacing="1.5px">WALLET.SIGN · 0.5 SOL</text>
    </g>
    <g>
      <rect x="20" y="78" width="260" height="48" rx="4" fill="#06B6D4" fill-opacity="0.1" stroke="#06B6D4" stroke-opacity="0.4"/>
      <path d="M 36 44 L 42 50 L 50 40" transform="translate(0 60)" fill="none" stroke="#06B6D4" stroke-width="2.4" stroke-linecap="round" stroke-linejoin="round"/>
      <circle cx="40" cy="102" r="8" fill="none" stroke="#06B6D4" stroke-width="1.5"/>
      <text x="56" y="106" font-family="'Fira Code', monospace" font-size="11" fill="#06B6D4" letter-spacing="1.5px">OUTREACH.SEND · 12 emails</text>
    </g>
    <g>
      <rect x="20" y="136" width="260" height="48" rx="4" fill="#8B5CF6" fill-opacity="0.1" stroke="#8B5CF6" stroke-opacity="0.4"/>
      <circle cx="40" cy="160" r="8" fill="none" stroke="#8B5CF6" stroke-width="1.5"/>
      <text x="56" y="164" font-family="'Fira Code', monospace" font-size="11" fill="#8B5CF6" letter-spacing="1.5px">CODE.EDIT · 4 files</text>
    </g>
    <g>
      <rect x="20" y="194" width="260" height="48" rx="4" fill="#6366F1" fill-opacity="0.1" stroke="#6366F1" stroke-opacity="0.4"/>
      <circle cx="40" cy="218" r="8" fill="none" stroke="#6366F1" stroke-width="1.5"/>
      <text x="56" y="222" font-family="'Fira Code', monospace" font-size="11" fill="#6366F1" letter-spacing="1.5px">LIVE.PROMOTE · paper→live</text>
    </g>
  </g>
  <g transform="translate(80 612)">
    <text font-family="'Fira Code', monospace" font-size="13" fill="#5c5a52" letter-spacing="2.4px">TARS · MEEET.WORLD · INBOX</text>
  </g>
</svg>
